<svg width="66" height="67" viewBox="0 0 66 67" fill="none" xmlns="http://www.w3.org/2000/svg">
<path d="M52.25 31.7083H13.75C10.7124 31.7083 8.25 34.2081 8.25 37.2916V56.8333C8.25 59.9169 10.7124 62.4166 13.75 62.4166H52.25C55.2876 62.4166 57.75 59.9169 57.75 56.8333V37.2916C57.75 34.2081 55.2876 31.7083 52.25 31.7083Z" stroke="#1D92FF" stroke-width="4" stroke-linecap="round" stroke-linejoin="round"/>
<path d="M19.25 30.7083V19.5416C19.25 15.8397 20.6987 12.2893 23.2773 9.67161C25.8559 7.05392 29.3533 5.58331 33 5.58331C36.6467 5.58331 40.1441 7.05392 42.7227 9.67161C45.3013 12.2893 46.75 15.8397 46.75 19.5416V30.7083" stroke="#1D92FF" stroke-width="5" stroke-linecap="round" stroke-linejoin="round"/>
</svg>
